:FULLY-SPECIFIED
:FORCE-ALL-JOINTS-BE-3DOF
:DEGREES
1223
root -0.754343 14.6273 -17.0428 372.454 20.261 363.497
lfemur 14.4108 -1.28287 -9.88018
ltibia 28.9549 0 0
lfoot 1.00626 28.259 0
ltoes -29.8569 0 0
rfemur -61.187 -16.4557 22.2023
rtibia 79.0625 0 0
rfoot -18.846 -22.6344 0
rtoes 5.13963 0 0
lowerback 13.675 0.333291 -3.83946
upperback -3.82304 -0.298477 -0.296668
thorax -11.8758 0.138412 1.9227
lowerneck -1.00868 -8.60627 -9.86273
upperneck 0.0532216 -11.4873 10.2068
head 1.37761 -5.70873 4.38182
lclavicle 2.79537e-015 -3.65664e-015 0
lhumerus -61.0748 -30.0115 113.664
lradius 90.7337 0 0
lwrist 24.9667 0 0
lhand -23.2569 22.643 0
lfingers 7.12502 0 0
lthumb 3.19523 55.8823 0
rclavicle 2.79537e-015 -3.65664e-015 0
rhumerus 66.2566 3.11499 -26.2531
rradius 93.3501 0 0
rwrist -10.8976 0 0
rhand -30.0232 -33.596 0
rfingers 7.12502 0 0
rthumb -3.33987 -63.5335 0
1224
root -0.760623 14.6541 -16.8643 372.273 19.6133 363.059
lfemur 12.3835 -1.2168 -10.0061
ltibia 32.887 0 0
lfoot 1.12572 27.1562 0
ltoes -30.1451 0 0
rfemur -60.2612 -15.7356 22.7104
rtibia 78.7681 0 0
rfoot -19.2207 -22.9952 0
rtoes 4.37899 0 0
lowerback 13.5985 0.313128 -3.38516
upperback -3.81566 -0.229606 -0.186556
thorax -11.8176 0.144034 1.77065
lowerneck -1.0219 -8.41269 -9.67685
upperneck 0.113446 -11.2262 9.99012
head 1.356 -5.57913 4.31045
lclavicle -3.00031e-016 -3.40782e-015 0
lhumerus -59.7639 -31.4767 114.084
lradius 88.7957 0 0
lwrist 20.7646 0 0
lhand -23.8741 21.2601 0
lfingers 7.12502 0 0
lthumb 2.59931 56.0575 0
rclavicle -3.00031e-016 -3.40782e-015 0
rhumerus 67.0323 3.89994 -25.8488
rradius 93.8104 0 0
rwrist -12.0543 0 0
rhand -29.543 -34.1983 0
rfingers 7.12502 0 0
rthumb -2.87612 -64.1384 0
1225
root -0.766904 14.6808 -16.6859 372.052 18.9478 362.594
lfemur 10.1773 -1.12506 -10.1333
ltibia 37.1755 0 0
lfoot 1.19105 25.9723 0
ltoes -30.4637 0 0
rfemur -59.2513 -14.9679 23.222
rtibia 78.4306 0 0
rfoot -19.6077 -23.3292 0
rtoes 3.52049 0 0
lowerback 13.5289 0.298611 -2.90863
upperback -3.79963 -0.149249 -0.0691604
thorax -11.7543 0.153604 1.61112
lowerneck -1.03226 -8.21591 -9.48442
upperneck 0.182033 -10.9616 9.76355
head 1.33611 -5.44787 4.23556
lclavicle -3.5811e-015 -3.20587e-015 0
lhumerus -58.3877 -33.0311 114.512
lradius 86.7366 0 0
lwrist 16.3349 0 0
lhand -24.51 19.7997 0
lfingers 7.12502 0 0
lthumb 1.9852 56.3 0
rclavicle -3.5811e-015 -3.20587e-015 0
rhumerus 67.8745 4.71024 -25.41
rradius 94.3042 0 0
rwrist -13.2353 0 0
rhand -29.047 -34.8449 0
rfingers 7.12502 0 0
rthumb -2.39714 -64.7869 0
1226
root -0.773184 14.7075 -16.5074 371.797 18.2667 362.106
lfemur 7.81531 -1.00859 -10.2632
ltibia 41.7508 0 0
lfoot 1.20834 24.7233 0
ltoes -30.8049 0 0
rfemur -58.1649 -14.1612 23.7342
rtibia 78.0527 0 0
rfoot -20.006 -23.6382 0
rtoes 2.57763 0 0
lowerback 13.4657 0.289544 -2.41537
upperback -3.77616 -0.0586725 0.0543805
thorax -11.6868 0.166887 1.44631
lowerneck -1.04094 -8.01648 -9.28688
upperneck 0.258696 -10.6942 9.52913
head 1.31825 -5.31524 4.15785
lclavicle -6.9968e-015 -3.04343e-015 0
lhumerus -56.9422 -34.6504 114.939
lradius 84.5877 0 0
lwrist 11.744 0 0
lhand -25.16 18.2929 0
lfingers 7.12502 0 0
lthumb 1.35748 56.5682 0
rclavicle -6.9968e-015 -3.04343e-015 0
rhumerus 68.7532 5.54169 -24.9569
rradius 94.8234 0 0
rwrist -14.4407 0 0
rhand -28.5388 -35.5254 0
rfingers 7.12502 0 0
rthumb -1.90631 -65.4691 0
